<mxfile host="app.diagrams.net" modified="2022-06-08T06:45:40.877Z" agent="5.0 (Windows NT 10.0; Win64; x64) AppleWebKit/537.36 (KHTML, like Gecko) Chrome/101.0.0.0 Safari/537.36" etag="soyZZvPPxbncTKFrmkMU" version="19.0.1" type="github">
  <diagram id="L4KZnXc1QTPWkXXBy1ZE" name="第 1 页">
    <mxGraphModel dx="1038" dy="1784" grid="1" gridSize="10" guides="1" tooltips="1" connect="1" arrows="1" fold="1" page="1" pageScale="1" pageWidth="827" pageHeight="1169" math="0" shadow="0">
      <root>
        <mxCell id="0" />
        <mxCell id="1" parent="0" />
        <mxCell id="dn2zpVRNVVZsFYZm2x4l-1" value="" style="rounded=1;whiteSpace=wrap;html=1;rotation=90;strokeWidth=2;fillColor=#f5f5f5;fontColor=#333333;strokeColor=#666666;" vertex="1" parent="1">
          <mxGeometry x="60" y="-340" width="270" height="140" as="geometry" />
        </mxCell>
        <mxCell id="dn2zpVRNVVZsFYZm2x4l-2" value="F(n)" style="text;html=1;strokeColor=none;fillColor=none;align=center;verticalAlign=middle;whiteSpace=wrap;rounded=0;strokeWidth=2;fontSize=14;" vertex="1" parent="1">
          <mxGeometry x="118.75" y="-440" width="60" height="30" as="geometry" />
        </mxCell>
        <mxCell id="dn2zpVRNVVZsFYZm2x4l-3" value="" style="rounded=1;whiteSpace=wrap;html=1;rotation=90;strokeWidth=2;fillColor=#dae8fc;strokeColor=#6c8ebf;" vertex="1" parent="1">
          <mxGeometry x="90" y="-300" width="210" height="110" as="geometry" />
        </mxCell>
        <mxCell id="dn2zpVRNVVZsFYZm2x4l-4" value="F(n-1)" style="text;html=1;strokeColor=none;fillColor=none;align=center;verticalAlign=middle;whiteSpace=wrap;rounded=0;fontSize=14;" vertex="1" parent="1">
          <mxGeometry x="140" y="-380" width="60" height="30" as="geometry" />
        </mxCell>
        <mxCell id="dn2zpVRNVVZsFYZm2x4l-5" value="" style="rounded=1;whiteSpace=wrap;html=1;rotation=90;strokeWidth=2;fillColor=#e3c800;fontColor=#000000;strokeColor=#B09500;" vertex="1" parent="1">
          <mxGeometry x="118.75" y="-270" width="152.5" height="85" as="geometry" />
        </mxCell>
        <mxCell id="dn2zpVRNVVZsFYZm2x4l-6" value="F(n-2)" style="text;html=1;strokeColor=none;fillColor=none;align=center;verticalAlign=middle;whiteSpace=wrap;rounded=0;fontSize=14;" vertex="1" parent="1">
          <mxGeometry x="147.5" y="-330" width="60" height="30" as="geometry" />
        </mxCell>
        <mxCell id="dn2zpVRNVVZsFYZm2x4l-10" value="" style="rounded=1;whiteSpace=wrap;html=1;fontSize=14;strokeWidth=2;rotation=90;" vertex="1" parent="1">
          <mxGeometry x="327.5" y="-327.5" width="270" height="115" as="geometry" />
        </mxCell>
        <mxCell id="dn2zpVRNVVZsFYZm2x4l-11" value="F(n-2)" style="rounded=1;whiteSpace=wrap;html=1;fontSize=14;strokeWidth=2;fillColor=#647687;fontColor=#ffffff;strokeColor=#314354;" vertex="1" parent="1">
          <mxGeometry x="423.75" y="-290" width="77.5" height="40" as="geometry" />
        </mxCell>
        <mxCell id="dn2zpVRNVVZsFYZm2x4l-12" value="F(n-1)" style="rounded=1;whiteSpace=wrap;html=1;fontSize=14;strokeWidth=2;fillColor=#647687;fontColor=#ffffff;strokeColor=#314354;" vertex="1" parent="1">
          <mxGeometry x="422.5" y="-240" width="80" height="40" as="geometry" />
        </mxCell>
        <mxCell id="dn2zpVRNVVZsFYZm2x4l-13" value="F(n)" style="rounded=1;whiteSpace=wrap;html=1;fontSize=14;strokeWidth=2;fillColor=#6d8764;fontColor=#ffffff;strokeColor=#3A5431;" vertex="1" parent="1">
          <mxGeometry x="422.5" y="-190" width="80" height="40" as="geometry" />
        </mxCell>
        <mxCell id="dn2zpVRNVVZsFYZm2x4l-15" value="" style="shape=image;html=1;verticalAlign=top;verticalLabelPosition=bottom;labelBackgroundColor=#ffffff;imageAspect=0;aspect=fixed;image=https://cdn4.iconfinder.com/data/icons/essential-app-2/16/record-round-circle-dot-128.png;fontSize=14;strokeWidth=2;" vertex="1" parent="1">
          <mxGeometry x="186" y="-247.5" width="18" height="18" as="geometry" />
        </mxCell>
        <mxCell id="dn2zpVRNVVZsFYZm2x4l-16" value="" style="shape=image;html=1;verticalAlign=top;verticalLabelPosition=bottom;labelBackgroundColor=#ffffff;imageAspect=0;aspect=fixed;image=https://cdn4.iconfinder.com/data/icons/essential-app-2/16/record-round-circle-dot-128.png;fontSize=14;strokeWidth=2;" vertex="1" parent="1">
          <mxGeometry x="186" y="-224.5" width="18" height="18" as="geometry" />
        </mxCell>
        <mxCell id="dn2zpVRNVVZsFYZm2x4l-17" value="" style="shape=image;html=1;verticalAlign=top;verticalLabelPosition=bottom;labelBackgroundColor=#ffffff;imageAspect=0;aspect=fixed;image=https://cdn4.iconfinder.com/data/icons/essential-app-2/16/record-round-circle-dot-128.png;fontSize=14;strokeWidth=2;" vertex="1" parent="1">
          <mxGeometry x="186" y="-200" width="18" height="18" as="geometry" />
        </mxCell>
        <mxCell id="dn2zpVRNVVZsFYZm2x4l-19" value="栈存储结构" style="text;html=1;strokeColor=#6D1F00;fillColor=#a0522d;align=center;verticalAlign=middle;whiteSpace=wrap;rounded=0;fontSize=14;fontColor=#ffffff;" vertex="1" parent="1">
          <mxGeometry x="425.5" y="-130" width="77" height="30" as="geometry" />
        </mxCell>
        <mxCell id="dn2zpVRNVVZsFYZm2x4l-20" value="" style="endArrow=classic;html=1;rounded=0;fontSize=14;exitX=0.85;exitY=0.004;exitDx=0;exitDy=0;exitPerimeter=0;entryX=0;entryY=0.5;entryDx=0;entryDy=0;strokeWidth=2;" edge="1" parent="1" source="dn2zpVRNVVZsFYZm2x4l-1" target="dn2zpVRNVVZsFYZm2x4l-13">
          <mxGeometry width="50" height="50" relative="1" as="geometry">
            <mxPoint x="290" y="-240" as="sourcePoint" />
            <mxPoint x="340" y="-290" as="targetPoint" />
          </mxGeometry>
        </mxCell>
        <mxCell id="dn2zpVRNVVZsFYZm2x4l-22" value="" style="endArrow=classic;html=1;rounded=0;fontSize=14;exitX=0.75;exitY=0;exitDx=0;exitDy=0;entryX=0;entryY=0.5;entryDx=0;entryDy=0;strokeWidth=2;" edge="1" parent="1" source="dn2zpVRNVVZsFYZm2x4l-3" target="dn2zpVRNVVZsFYZm2x4l-12">
          <mxGeometry width="50" height="50" relative="1" as="geometry">
            <mxPoint x="320" y="-270" as="sourcePoint" />
            <mxPoint x="370" y="-320" as="targetPoint" />
          </mxGeometry>
        </mxCell>
        <mxCell id="dn2zpVRNVVZsFYZm2x4l-23" value="" style="endArrow=classic;html=1;rounded=0;fontSize=14;exitX=0.5;exitY=0;exitDx=0;exitDy=0;entryX=0;entryY=0.5;entryDx=0;entryDy=0;strokeWidth=2;" edge="1" parent="1" source="dn2zpVRNVVZsFYZm2x4l-5" target="dn2zpVRNVVZsFYZm2x4l-11">
          <mxGeometry width="50" height="50" relative="1" as="geometry">
            <mxPoint x="310" y="-260" as="sourcePoint" />
            <mxPoint x="360" y="-310" as="targetPoint" />
          </mxGeometry>
        </mxCell>
        <mxCell id="dn2zpVRNVVZsFYZm2x4l-24" value="" style="shape=image;html=1;verticalAlign=top;verticalLabelPosition=bottom;labelBackgroundColor=#ffffff;imageAspect=0;aspect=fixed;image=https://cdn4.iconfinder.com/data/icons/essential-app-2/16/record-round-circle-dot-128.png;fontSize=14;strokeWidth=2;" vertex="1" parent="1">
          <mxGeometry x="455" y="-374" width="18" height="18" as="geometry" />
        </mxCell>
        <mxCell id="dn2zpVRNVVZsFYZm2x4l-25" value="" style="shape=image;html=1;verticalAlign=top;verticalLabelPosition=bottom;labelBackgroundColor=#ffffff;imageAspect=0;aspect=fixed;image=https://cdn4.iconfinder.com/data/icons/essential-app-2/16/record-round-circle-dot-128.png;fontSize=14;strokeWidth=2;" vertex="1" parent="1">
          <mxGeometry x="455" y="-350" width="18" height="18" as="geometry" />
        </mxCell>
        <mxCell id="dn2zpVRNVVZsFYZm2x4l-26" value="" style="shape=image;html=1;verticalAlign=top;verticalLabelPosition=bottom;labelBackgroundColor=#ffffff;imageAspect=0;aspect=fixed;image=https://cdn4.iconfinder.com/data/icons/essential-app-2/16/record-round-circle-dot-128.png;fontSize=14;strokeWidth=2;" vertex="1" parent="1">
          <mxGeometry x="455" y="-324" width="18" height="18" as="geometry" />
        </mxCell>
        <mxCell id="dn2zpVRNVVZsFYZm2x4l-28" value="保存函数的暂停状态" style="text;html=1;strokeColor=none;fillColor=none;align=center;verticalAlign=middle;whiteSpace=wrap;rounded=0;fontSize=14;" vertex="1" parent="1">
          <mxGeometry x="590" y="-192" width="80" height="30" as="geometry" />
        </mxCell>
        <mxCell id="dn2zpVRNVVZsFYZm2x4l-30" value="" style="shape=flexArrow;endArrow=classic;html=1;rounded=0;fontSize=14;strokeWidth=2;width=9;endSize=7.96;exitX=0;exitY=0.5;exitDx=0;exitDy=0;entryX=0.843;entryY=0;entryDx=0;entryDy=0;entryPerimeter=0;" edge="1" parent="1" source="dn2zpVRNVVZsFYZm2x4l-28" target="dn2zpVRNVVZsFYZm2x4l-10">
          <mxGeometry width="50" height="50" relative="1" as="geometry">
            <mxPoint x="540" y="-185" as="sourcePoint" />
            <mxPoint x="590" y="-235" as="targetPoint" />
          </mxGeometry>
        </mxCell>
        <mxCell id="dn2zpVRNVVZsFYZm2x4l-31" value="递归调用" style="text;html=1;strokeColor=#0e8088;fillColor=#b0e3e6;align=center;verticalAlign=middle;whiteSpace=wrap;rounded=0;fontSize=14;horizontal=0;rotation=90;" vertex="1" parent="1">
          <mxGeometry x="57.5" y="-290" width="90" height="20" as="geometry" />
        </mxCell>
      </root>
    </mxGraphModel>
  </diagram>
</mxfile>
